PathFileType	4	(X/Y/Z)	/Users/itak/Documents/Research/Walk-IL/dataset/trc/00357_00011.trc
DataRate	CameraRate	NumFrames	NumMarkers	Units	OrigDataRate	OrigDataStartFrame	OrigNumFrames
100.000000	100.000000	4	59	mm	100.000000	0	430
Frame#	Time	RPSI			LPSI			L3			STRN			T10			C7			CLAV			RBAK			LBAK			LSHO			LUPA			LAEL			LAOL			LWTS			LWPS			LFRA			LHPS			LHTS			RSHO			RUPA			RAEL			RAOL			RWTS			RWPS			RFRA			RIFD			RHTS			RHPS			RBHD			LFHD			RFHD			LBHD			RHIP			RASI			LASI			LKNE			LTHI			LANK			LTIP			LTOE			LMT1			LMT5			LHEE			RKNE			RTHI			RANK			RTIP			RTOE			RMT5			RHEE			LIFD			LHIP			RMT1			*53			*54			*55			*56			*57			*58			
		X1	Y1	Z1	X2	Y2	Z2	X3	Y3	Z3	X4	Y4	Z4	X5	Y5	Z5	X6	Y6	Z6	X7	Y7	Z7	X8	Y8	Z8	X9	Y9	Z9	X10	Y10	Z10	X11	Y11	Z11	X12	Y12	Z12	X13	Y13	Z13	X14	Y14	Z14	X15	Y15	Z15	X16	Y16	Z16	X17	Y17	Z17	X18	Y18	Z18	X19	Y19	Z19	X20	Y20	Z20	X21	Y21	Z21	X22	Y22	Z22	X23	Y23	Z23	X24	Y24	Z24	X25	Y25	Z25	X26	Y26	Z26	X27	Y27	Z27	X28	Y28	Z28	X29	Y29	Z29	X30	Y30	Z30	X31	Y31	Z31	X32	Y32	Z32	X33	Y33	Z33	X34	Y34	Z34	X35	Y35	Z35	X36	Y36	Z36	X37	Y37	Z37	X38	Y38	Z38	X39	Y39	Z39	X40	Y40	Z40	X41	Y41	Z41	X42	Y42	Z42	X43	Y43	Z43	X44	Y44	Z44	X45	Y45	Z45	X46	Y46	Z46	X47	Y47	Z47	X48	Y48	Z48	X49	Y49	Z49	X50	Y50	Z50	X51	Y51	Z51	X52	Y52	Z52	X53	Y53	Z53	X54	Y54	Z54	X55	Y55	Z55	X56	Y56	Z56	X57	Y57	Z57	X58	Y58	Z58	X59	Y59	Z59	

1	0	-1342.0947265625	985.3460083007812	799.2280883789062	-1341.225463867188	984.9262084960938	670.3081665039062	-1339.448364257812	1034.501831054688	738.7061157226562	-1113.621948242188	1216.452880859375	726.3341674804688	-1350.780395507812	1154.574829101562	728.0299072265625	-1312.212890625	1402.284790039062	711.8440551757812	-1154.3232421875	1342.918090820312	722.648681640625	-1360.102783203125	1263.614990234375	778.6818237304688	-1318.851806640625	1364.552612304688	608.394287109375	-1230.595825195312	1381.461547851562	555.8472290039062	-1242.781982421875	1259.966430664062	488.7071533203125	-1215.492431640625	1054.925537109375	485.0003051757812	-1284.526611328125	1040.948364257812	532.013916015625	-1114.197998046875	819.8309326171875	553.9924926757812	-1148.243530273438	804.033935546875	493.421142578125	-1194.821166992188	951.2826538085938	484.7675476074219	-1150.405883789062	735.6134033203125	500.5859985351562	-1100.30419921875	740.7039184570312	542.0308227539062	-1258.979125976562	1389.237548828125	878.39208984375	-1270.574340820312	1322.094360351562	940.596923828125	-1255.811401367188	1053.219482421875	971.8370971679688	-1300.294921875	1047.10791015625	888.9954223632812	-1117.1884765625	845.0630493164062	924.647705078125	-1169.502807617188	812.3203125	976.4185791015625	-1226.954833984375	986.2240600585938	976.7417602539062	-1116.731079101562	660.4874877929688	911.3862915039062	-1102.381225585938	735.115966796875	921.764404296875	-1149.5537109375	730.78271484375	969.9891357421875	-1269.196899414062	1609.566650390625	798.967041015625	-1102.215698242188	1620.35986328125	675.0449829101562	-1108.580444335938	1620.76904296875	775.7173461914062	-1287.431518554688	1604.821655273438	655.1181030273438	-1263.907958984375	928.836669921875	908.15673828125	-1158.918701171875	949.7317504882812	862.724365234375	-1136.818603515625	938.7438354492188	623.6852416992188	-1263.463745117188	464.0655212402344	550.4575805664062	-1244.051147460938	602.4273071289062	549.0054931640625	-1356.931396484375	50.28973770141602	538.9365234375	-1313.2177734375	254.0276947021484	530.5026245117188	-1150.115478515625	43.73757934570312	602.8545532226562	-1221.150024414062	35.30632400512695	642.6265258789062	-1229.336059570312	47.18896102905273	529.3155517578125	-1390.712158203125	44.59462356567383	606.8759155273438	-1237.966552734375	461.2131958007812	905.82958984375	-1203.070678710938	726.8961181640625	926.2367553710938	-1344.948486328125	57.1434211730957	907.37841796875	-1243.115966796875	342.4201965332031	898.8742065429688	-1152.343994140625	46.32237243652344	854.9466552734375	-1207.939086914062	41.40518951416016	812.424560546875	-1377.470703125	30.72967147827148	884.024169921875	-1108.258422851562	656.1873779296875	558.87646484375	-1261.692993164062	921.6384887695312	564.9189453125	-1244.166381835938	43.02587509155273	925.3795776367188	nan	nan	nan	nan	nan	nan	nan	nan	nan	nan	nan	nan	nan	nan	nan	nan	nan	nan	
2	0.01	-1341.609252929688	985.2596435546875	799.81396484375	-1340.465698242188	984.8486938476562	670.823974609375	-1338.748779296875	1034.445678710938	739.2269897460938	-1112.942626953125	1216.271240234375	726.9912719726562	-1350.09619140625	1154.531494140625	728.4893798828125	-1311.488525390625	1402.160400390625	712.2645874023438	-1153.605834960938	1342.72998046875	723.1212768554688	-1359.459350585938	1263.539428710938	779.0668334960938	-1317.985229492188	1364.37060546875	608.8986206054688	-1229.731079101562	1381.306884765625	556.3782958984375	-1241.908935546875	1259.768188476562	489.1246032714844	-1214.817016601562	1054.801025390625	485.2136840820312	-1283.866333007812	1040.8466796875	532.2379760742188	-1114.4150390625	819.1926879882812	553.909912109375	-1147.8486328125	803.6997680664062	493.6495971679688	-1194.239990234375	951.1444702148438	485.0051574707031	-1150.079345703125	735.017578125	501.2567138671875	-1100.002075195312	740.2706909179688	542.2380981445312	-1258.362915039062	1389.07666015625	878.7754516601562	-1270.097900390625	1321.988525390625	941.0208740234375	-1255.459350585938	1053.086547851562	972.3074951171875	-1299.7802734375	1046.982543945312	889.2802734375	-1116.908081054688	844.84375	924.99462890625	-1169.229125976562	812.232666015625	976.9472045898438	-1226.681518554688	986.0808715820312	977.151123046875	-1116.10595703125	660.4484252929688	911.8883666992188	-1102.065185546875	734.736083984375	922.0860595703125	-1149.115600585938	730.6837768554688	970.439453125	-1268.441040039062	1609.437133789062	799.3292846679688	-1101.41552734375	1620.158813476562	675.4349365234375	-1107.76171875	1620.557250976562	776.1349487304688	-1286.625610351562	1604.687255859375	655.562255859375	-1263.502075195312	928.8536987304688	908.78125	-1158.389526367188	949.5997314453125	863.4325561523438	-1136.0810546875	938.4420166015625	624.3723754882812	-1263.025512695312	463.9811096191406	550.6654052734375	-1243.773071289062	602.289306640625	549.3483276367188	-1356.945922851562	50.29870223999023	538.9442138671875	-1312.864135742188	254.0071411132812	530.7574462890625	-1150.185668945312	43.86638641357422	602.8544921875	-1221.154296875	35.29239654541016	642.6390380859375	-1229.3310546875	47.25768661499023	529.382080078125	-1390.759521484375	44.62897491455078	606.90966796875	-1236.4951171875	460.8732299804688	905.728759765625	-1202.172607421875	726.5088500976562	926.5858764648438	-1344.998779296875	57.39540481567383	907.1776123046875	-1242.010131835938	342.0169982910156	898.7584838867188	-1152.315063476562	46.30692291259766	854.8861083984375	-1207.891235351562	41.25505065917969	812.2736206054688	-1377.56005859375	31.07512474060059	883.6668090820312	-1108.0341796875	655.8939208984375	558.8006591796875	-1260.94140625	921.4511108398438	565.5022583007812	-1244.058471679688	43.26842498779297	925.3427124023438	nan	nan	nan	nan	nan	nan	nan	nan	nan	nan	nan	nan	nan	nan	nan	nan	nan	nan	
3	0.02	-1340.982299804688	985.1475219726562	800.5798950195312	-1339.508911132812	984.770263671875	671.5164184570312	-1337.865966796875	1034.369873046875	739.9259033203125	-1112.064208984375	1216.037109375	727.8405151367188	-1349.211303710938	1154.440185546875	729.0960083007812	-1310.550170898438	1401.995483398438	712.8043823242188	-1152.690063476562	1342.496337890625	723.7802734375	-1358.624633789062	1263.432495117188	779.56201171875	-1316.865234375	1364.123779296875	609.5330810546875	-1228.598388671875	1381.082397460938	557.0496215820312	-1240.785278320312	1259.50537109375	489.6769409179688	-1213.964111328125	1054.6298828125	485.5321044921875	-1283.0244140625	1040.693359375	532.5571899414062	-1114.49560546875	818.4853515625	553.8975830078125	-1147.364624023438	803.3042602539062	493.9397583007812	-1193.516967773438	950.9439697265625	485.3182067871094	-1149.661376953125	734.3975830078125	501.9172973632812	-1099.603637695312	739.7467041015625	542.4841918945312	-1257.58251953125	1388.866333007812	879.2911376953125	-1269.492553710938	1321.851928710938	941.5775146484375	-1255.033813476562	1052.928100585938	972.906494140625	-1299.141235351562	1046.825805664062	889.6697387695312	-1116.551391601562	844.6044311523438	925.5055541992188	-1168.888916015625	812.113037109375	977.6557006835938	-1226.330932617188	985.879150390625	977.7040405273438	-1115.339477539062	660.3923950195312	912.5707397460938	-1101.597045898438	734.3733520507812	922.6115112304688	-1148.599853515625	730.546142578125	971.0690307617188	-1267.463745117188	1609.268676757812	799.80859375	-1100.394653320312	1619.905883789062	675.9431762695312	-1106.720581054688	1620.291748046875	776.6652221679688	-1285.590087890625	1604.493408203125	656.13134765625	-1262.967407226562	928.827880859375	909.5836791992188	-1157.737182617188	949.418701171875	864.3599853515625	-1135.118530273438	938.079345703125	625.3002319335938	-1262.394409179688	463.8519592285156	550.980224609375	-1243.345581054688	602.111083984375	549.8321533203125	-1356.95947265625	50.31728744506836	538.9691162109375	-1312.397827148438	253.9871978759766	531.0977783203125	-1150.275756835938	44.02435684204102	602.85693359375	-1221.1611328125	35.27363204956055	642.656005859375	-1229.3271484375	47.33354187011719	529.448974609375	-1390.81640625	44.66994094848633	606.9498901367188	-1234.64404296875	460.4710998535156	905.6460571289062	-1201.102905273438	726.0956420898438	927.0948486328125	-1345.030151367188	57.69084930419922	906.9321899414062	-1240.627807617188	341.510498046875	898.62158203125	-1152.27783203125	46.28494644165039	854.8075561523438	-1207.8291015625	41.07986831665039	812.0917358398438	-1377.642700195312	31.46786308288574	883.261962890625	-1107.755615234375	655.5177612304688	558.7234497070312	-1259.967895507812	921.2339477539062	566.2882080078125	-1243.94091796875	43.54050064086914	925.2637939453125	nan	nan	nan	nan	nan	nan	nan	nan	nan	nan	nan	nan	nan	nan	nan	nan	nan	nan	
4	0.03	-1340.228393554688	985.01171875	801.516845703125	-1338.386962890625	984.7007446289062	672.3867797851562	-1336.830078125	1034.268310546875	740.794189453125	-1111.010498046875	1215.752563476562	728.8701782226562	-1348.15185546875	1154.288940429688	729.838134765625	-1309.42138671875	1401.791015625	713.4478149414062	-1151.606079101562	1342.226684570312	724.6312866210938	-1357.625	1263.29296875	780.158447265625	-1315.522094726562	1363.81396484375	610.2738037109375	-1227.222778320312	1380.783813476562	557.84130859375	-1239.4453125	1259.185302734375	490.3576965332031	-1212.970703125	1054.409423828125	485.9624328613281	-1282.032470703125	1040.485717773438	532.9756469726562	-1114.37548828125	817.7657470703125	553.9828491210938	-1146.81591796875	802.8712768554688	494.2788391113281	-1192.685302734375	950.6770629882812	485.7044982910156	-1149.160278320312	733.7985229492188	502.5039978027344	-1099.117309570312	739.1605224609375	542.7438354492188	-1256.667358398438	1388.614868164062	879.938232421875	-1268.78076171875	1321.687866210938	942.2579956054688	-1254.553955078125	1052.753662109375	973.619873046875	-1298.4033203125	1046.6455078125	890.1705932617188	-1116.122192382812	844.3668212890625	926.1998291015625	-1168.491943359375	811.962646484375	978.5350341796875	-1225.916137695312	985.6251831054688	978.403076171875	-1114.475952148438	660.319580078125	913.42529296875	-1100.972778320312	734.0677490234375	923.3461303710938	-1148.042724609375	730.3707275390625	971.883544921875	-1266.291137695312	1609.065795898438	800.3985595703125	-1099.185913085938	1619.609252929688	676.5589599609375	-1105.492553710938	1619.985717773438	777.2926635742188	-1284.356079101562	1604.236938476562	656.8097534179688	-1262.322387695312	928.7422485351562	910.5545043945312	-1156.98974609375	949.1876220703125	865.497802734375	-1133.955444335938	937.6785888671875	626.4600830078125	-1261.563232421875	463.6734313964844	551.42041015625	-1242.740600585938	601.9047241210938	550.4623413085938	-1356.97119140625	50.34433364868164	539.0075073242188	-1311.833984375	253.9749298095703	531.5104370117188	-1150.380981445312	44.2001838684082	602.8648681640625	-1221.171020507812	35.25055313110352	642.67724609375	-1229.32568359375	47.41043090820312	529.5087890625	-1390.8798828125	44.70737838745117	606.9857788085938	-1232.484985351562	460.0186767578125	905.5971069335938	-1199.910034179688	725.6766357421875	927.76953125	-1345.024780273438	58.01269149780273	906.6533203125	-1239.021118164062	340.9230651855469	898.4730834960938	-1152.232666015625	46.25717163085938	854.7138671875	-1207.7548828125	40.89377593994141	811.8900146484375	-1377.696899414062	31.87394332885742	882.8506469726562	-1107.433227539062	655.0655517578125	558.6593627929688	-1258.806396484375	921.0070190429688	567.2695922851562	-1243.822631835938	43.81828689575195	925.1378784179688	nan	nan	nan	nan	nan	nan	nan	nan	nan	nan	nan	nan	nan	nan	nan	nan	nan	nan	
